<?xml version="1.0" encoding="UTF-8" standalone="no"?>
<!-- Created with Inkscape (http://www.inkscape.org/) -->

<svg
   width="146.64371mm"
   height="173.30887mm"
   viewBox="0 0 146.64371 173.30887"
   version="1.1"
   id="svg1"
   xml:space="preserve"
   xmlns:inkscape="http://www.inkscape.org/namespaces/inkscape"
   xmlns:sodipodi="http://sodipodi.sourceforge.net/DTD/sodipodi-0.dtd"
   xmlns="http://www.w3.org/2000/svg"
   xmlns:svg="http://www.w3.org/2000/svg"><sodipodi:namedview
     id="namedview1"
     pagecolor="#505050"
     bordercolor="#eeeeee"
     borderopacity="1"
     inkscape:showpageshadow="0"
     inkscape:pageopacity="0"
     inkscape:pagecheckerboard="0"
     inkscape:deskcolor="#d1d1d1"
     inkscape:document-units="mm"><inkscape:page
       x="0"
       y="0"
       width="146.64371"
       height="173.30887"
       id="page2"
       margin="0"
       bleed="0" /></sodipodi:namedview><defs
     id="defs1" /><g
     inkscape:label="Layer 1"
     inkscape:groupmode="layer"
     id="layer1"
     transform="translate(-21.729727,-44.587298)"><path
       style="fill:#000000"
       d="m 80.959718,217.42349 c -0.914481,-0.84751 -1.248247,-1.87199 -1.668669,-5.12189 -0.116288,-0.89891 -0.301358,-2.28334 -0.411265,-3.07651 -0.679079,-4.90064 -0.663171,-8.98238 0.04609,-11.82532 0.424018,-1.69961 0.611811,-3.38164 0.626141,-5.60823 0.0132,-2.05117 -0.03267,-2.40657 -0.372272,-2.88423 -0.21303,-0.29963 -0.514762,-0.79376 -0.670515,-1.09805 -0.308944,-0.60359 -1.490605,-1.63293 -2.403229,-2.09345 -0.830469,-0.41906 -3.066624,-1.0533 -4.518622,-1.2816 -1.401424,-0.22035 -7.161454,-0.29173 -10.094793,-0.12509 -4.616702,0.26226 -5.5242,0.32975 -7.979693,0.59339 -3.418213,0.36701 -9.356772,0.2916 -10.575497,-0.13429 -0.475898,-0.1663 -1.253954,-0.41981 -1.729016,-0.56334 -1.229365,-0.37144 -3.32074,-2.52685 -3.773451,-3.88898 -0.741886,-2.23222 -0.859803,-5.14677 -0.269569,-6.66293 0.102925,-0.26439 0.232814,-0.75747 0.288642,-1.09574 0.05583,-0.33826 0.187583,-0.84143 0.292787,-1.11814 0.105204,-0.2767 0.191281,-0.69331 0.191281,-0.92579 0,-0.23247 0.288582,-0.85416 0.641294,-1.38152 1.428256,-2.13548 1.434993,-4.30315 0.01995,-6.4183 -0.310807,-0.46458 -0.6699,-1.027 -0.797986,-1.24983 -0.128085,-0.22282 -0.421218,-0.55845 -0.651405,-0.74583 -0.807426,-0.65728 -1.134671,-1.57134 -1.134671,-3.16936 0,-1.42164 0.03722,-1.54945 0.784198,-2.69266 0.690014,-1.05604 0.949815,-1.27945 2.16317,-1.86021 1.825906,-0.87394 2.02897,-0.90846 4.212491,-0.7161 l 1.87211,0.16493 0.954026,0.89237 c 0.524714,0.49081 1.261378,1.03895 1.637032,1.21809 0.375653,0.17913 0.683006,0.43946 0.683006,0.57851 0,0.13905 0.07476,0.25281 0.166132,0.25281 0.09137,0 0.394216,0.32913 0.672986,0.73139 0.897516,1.29512 0.631125,2.63352 -0.598765,3.00832 -0.635382,0.19363 -1.027325,0.012 -2.48414,-1.15087 -0.722384,-0.57664 -1.421584,-1.04893 -1.553778,-1.04951 -0.132193,-5.9e-4 -0.240352,-0.0858 -0.240352,-0.18945 0,-0.10361 -0.36106,-0.37257 -0.802357,-0.59771 -1.533319,-0.78224 -3.1022,-0.15599 -3.328753,1.32873 -0.113961,0.74685 -0.05476,0.93569 0.584219,1.86346 0.391068,0.56781 0.829939,1.07801 0.975271,1.13378 0.145331,0.0558 0.264239,0.27206 0.264239,0.48065 0,0.20859 0.08653,0.43273 0.192282,0.49809 0.105755,0.0654 0.192282,0.28795 0.192282,0.49466 0,0.2067 0.08303,0.52607 0.184511,0.70971 0.607577,1.09944 0.669054,4.66669 0.10818,6.27719 -0.180814,0.5192 -0.617215,1.55752 -0.96978,2.30738 -0.901996,1.91845 -1.271469,3.3521 -1.306714,5.0704 -0.02707,1.31977 0.03978,1.62966 0.602078,2.79106 0.362692,0.74911 0.81284,1.38835 1.055197,1.49844 0.232468,0.10559 0.638985,0.32164 0.903373,0.48011 0.311142,0.1865 0.78326,0.25813 1.338439,0.20308 0.471755,-0.0468 1.415828,0.002 2.097942,0.10803 0.848049,0.13203 1.792833,0.12816 2.9879,-0.0122 0.961232,-0.11292 3.218649,-0.25639 5.016484,-0.31881 1.797835,-0.0624 4.393638,-0.2379 5.768453,-0.38994 3.139149,-0.34716 7.198527,-0.33511 10.190934,0.0302 2.429359,0.2966 6.678406,1.26641 7.557133,1.72484 0.285286,0.14884 0.635134,0.27114 0.777441,0.2718 0.142307,6.5e-4 0.531678,0.19389 0.865268,0.42943 1.821649,1.28622 2.969649,3.00625 3.500049,5.24406 0.31088,1.31163 0.35585,4.94685 0.0773,6.24916 -1.17742,5.50514 -1.33686,9.42994 -0.56239,13.84429 0.23192,1.32193 0.43997,2.53331 0.46232,2.69194 0.0224,0.15863 0.0902,0.41822 0.15069,0.57685 0.64299,1.68537 0.59861,4.81539 -0.0805,5.67877 -0.49599,0.63055 -1.45656,0.63957 -2.125127,0.02 z m 28.056102,0.10247 c -0.38762,-0.42831 -0.88426,-3.56704 -0.88751,-5.60892 -0.005,-3.11724 -0.32268,-11.49626 -0.60153,-15.86325 -0.1962,-3.07254 -0.51185,-8.81335 -0.6502,-11.82533 -0.0461,-1.00467 -0.13616,-2.99478 -0.20003,-4.42248 -0.18282,-4.08705 -0.84113,-15.56018 -0.95985,-16.72851 -0.16732,-1.64645 -0.24462,-2.16964 -0.54441,-3.68448 -0.15357,-0.77604 -0.29077,-1.88631 -0.30489,-2.46726 -0.0141,-0.58094 -0.10534,-1.35968 -0.20273,-1.73053 -0.17191,-0.65456 -0.2112,-0.92273 -0.49316,-3.36621 -0.0732,-0.63453 -0.29615,-1.77942 -0.49539,-2.5442 -0.19924,-0.76478 -0.36225,-1.66717 -0.36225,-2.00531 0,-0.56274 -0.20237,-1.38076 -0.58696,-2.37264 -0.45564,-1.1751 -1.13866,-3.41754 -1.34704,-4.42248 -0.13157,-0.63453 -0.34579,-1.41327 -0.47604,-1.73053 -0.46762,-1.13903 -0.65815,-1.75101 -0.953723,-3.06318 -0.1651,-0.73296 -0.40091,-1.45402 -0.52402,-1.60237 -0.12312,-0.14835 -0.24076,-0.41392 -0.26142,-0.59017 -0.0644,-0.54897 -0.8347,-2.56993 -1.24404,-3.26372 -0.21476,-0.36399 -0.61217,-1.19182 -0.88312,-1.83963 -0.7787,-1.86173 -2.08438,-4.42477 -2.73823,-5.37511 -0.32972,-0.47924 -0.5995,-0.92722 -0.5995,-0.99552 0,-0.30572 -1.79491,-2.3756 -2.63202,-3.03524 -2.39251,-1.88527 -2.98834,-2.29195 -4.03345,-2.753 -0.61707,-0.27221 -1.55457,-0.69135 -2.08335,-0.93141 -0.52877,-0.24006 -1.82668,-0.71045 -2.88423,-1.04531 -1.057545,-0.33487 -2.323797,-0.73622 -2.813888,-0.8919 -0.490091,-0.15568 -1.14934,-0.28306 -1.464997,-0.28306 -0.315657,0 -1.316955,-0.12957 -2.225107,-0.28794 -2.982497,-0.52011 -7.824091,-0.8388 -13.685589,-0.90084 -9.216114,-0.0975 -11.364984,0.3999 -17.593171,4.07265 -2.110147,1.24435 -2.748278,1.75563 -5.263574,4.21733 -3.268837,3.19918 -5.076301,5.39044 -5.356582,6.494 -0.09669,0.38071 -0.01669,0.43608 0.785391,0.54355 0.491179,0.0658 1.286592,0.2282 1.767586,0.36087 0.536707,0.14803 1.523344,0.20716 2.554112,0.15306 1.170045,-0.0614 2.074519,0.008 2.981428,0.22826 0.716017,0.17402 1.859627,0.30872 2.541354,0.29933 0.681728,-0.009 1.758666,0.0273 2.393196,0.0816 2.529693,0.21645 5.494293,0.33877 7.59513,0.31337 11.293972,-0.13656 16.921979,-0.0605 21.247135,0.28729 4.939557,0.39715 10.576716,1.31504 11.825326,1.9255 0.26439,0.12926 0.82389,0.29728 1.24334,0.37337 0.41945,0.0761 0.99524,0.30398 1.27952,0.50641 0.28428,0.20242 0.59879,0.36805 0.69891,0.36805 0.22317,0 1.61913,0.73519 2.7426,1.4444 1.99689,1.26058 5.18101,4.36023 5.19409,5.05629 0.003,0.17892 0.13315,0.49327 0.28842,0.69855 0.46344,0.61272 0.36237,1.88804 -0.19081,2.40772 -0.90731,0.85238 -2.53391,0.11635 -3.55006,-1.60641 -0.75846,-1.28586 -1.37917,-1.95137 -2.80282,-3.00511 -3.7693,-2.78993 -7.55194,-3.94979 -15.094121,-4.62828 -5.461885,-0.49134 -6.531151,-0.53241 -17.113077,-0.65725 -13.122868,-0.15481 -16.095963,-0.26745 -17.4015,-0.65923 -0.777688,-0.23339 -3.764348,-0.63818 -3.877053,-0.52547 -0.0495,0.0495 0.01308,0.46647 0.139072,0.9266 0.290543,1.06112 0.282693,4.48186 -0.0133,5.79511 -0.124242,0.55123 -0.554199,1.69445 -0.95546,2.54049 -0.998105,2.10445 -1.023108,2.2291 -0.697362,3.47653 0.35407,1.35587 1.192897,2.29291 2.198534,2.45592 0.388248,0.0629 1.181804,0.26571 1.763456,0.45061 0.699341,0.22232 1.631133,0.33089 2.750954,0.32054 1.651759,-0.0153 1.709759,-0.0315 2.358424,-0.66021 0.411104,-0.39846 0.78998,-1.04098 0.992297,-1.6828 0.265098,-0.84099 0.56356,-1.25476 1.570947,-2.17784 1.203273,-1.10258 3.259821,-2.27889 3.984199,-2.27889 0.194346,0 0.787663,-0.16471 1.318482,-0.36601 1.195104,-0.45323 3.121382,-0.90775 5.387606,-1.27126 0.951794,-0.15267 2.42275,-0.40946 3.26879,-0.57064 0.84604,-0.16117 1.797834,-0.28503 2.115099,-0.27524 0.317265,0.01 2.566962,0.0159 4.999326,0.0136 2.432365,-0.002 4.595534,-0.004 4.807044,-0.004 0.21151,-1.3e-4 0.773934,0.0734 1.249832,0.16351 0.475897,0.0901 1.644009,0.26655 2.595804,0.3922 3.511557,0.46355 6.381217,1.20652 8.193417,2.12132 1.05494,0.53252 2.65261,1.57604 5.2237,3.41183 0.99562,0.71089 3.21778,2.96819 3.53964,3.59562 0.16276,0.31727 0.67708,1.14085 1.14295,1.83019 0.46587,0.68934 0.88218,1.51135 0.92513,1.82668 0.043,0.31533 0.21753,0.96074 0.38796,1.43424 0.36253,1.00722 0.68819,3.00746 0.79899,4.90754 0.21798,3.73791 0.007,9.03684 -0.38559,9.67704 -0.0436,0.0711 -0.12873,0.44182 -0.18916,0.82375 -0.19565,1.2365 -1.06021,3.69658 -1.74942,4.9779 -0.36974,0.6874 -0.75099,1.42288 -0.84721,1.63439 -0.24627,0.54134 -0.95562,1.14394 -1.81648,1.54313 -0.68771,0.31889 -0.77845,0.32054 -1.3975,0.0253 -0.36412,-0.17363 -0.75875,-0.52797 -0.87696,-0.7874 -0.2326,-0.51052 -0.18393,-0.63662 1.35103,-3.50012 0.69358,-1.29389 1.31495,-2.97231 2.03366,-5.49327 0.37764,-1.32464 0.43482,-6.94737 0.0995,-9.78559 -0.35176,-2.97748 -1.62414,-6.24872 -2.86852,-7.37487 -0.21661,-0.19603 -0.39385,-0.43369 -0.39385,-0.52813 0,-0.28727 -0.94117,-1.02621 -3.52568,-2.76807 -3.33607,-2.24839 -3.69922,-2.42308 -6.88007,-3.3096 -2.895009,-0.80685 -5.411972,-1.15536 -8.630141,-1.19498 -1.004672,-0.0124 -2.648682,-0.0463 -3.653354,-0.0755 -3.327153,-0.0966 -8.824608,0.39876 -10.960061,0.98756 -0.581652,0.16038 -1.546505,0.40136 -2.144119,0.53551 -1.554975,0.34907 -3.405668,0.99405 -4.290861,1.49539 -0.619931,0.35111 -0.831821,0.62941 -1.132158,1.487 -0.540785,1.54418 -1.287845,2.5156 -2.625214,3.41362 -2.136931,1.43491 -3.563108,1.61836 -6.920725,0.89022 -5.904384,-1.28045 -6.892766,-2.16255 -7.487016,-6.68194 -0.148084,-1.12621 -0.119588,-1.44338 0.195781,-2.17911 0.203001,-0.47358 0.369092,-1.01352 0.369092,-1.19988 0,-0.18635 0.173505,-0.49584 0.385566,-0.68775 0.332328,-0.30075 1.052874,-2.29975 1.143267,-3.17174 0.297399,-2.86893 0.23948,-3.42404 -0.421512,-4.03985 -0.726642,-0.67697 -3.462732,-1.39046 -5.57479,-1.45374 -1.029416,-0.0308 -1.939821,-0.0982 -2.023121,-0.14968 -0.0833,-0.0515 -0.885061,-0.27369 -1.781689,-0.4938 -1.664992,-0.40873 -1.628877,-0.38478 -2.926564,-1.94034 -0.747855,-0.89646 -1.351384,-3.24204 -1.109803,-4.31318 0.181292,-0.80382 0.197565,-0.82942 1.779741,-2.79967 0.721862,-0.89892 1.759737,-2.19682 2.306389,-2.88423 1.256557,-1.5801 2.384079,-2.902 4.088457,-4.79326 0.740285,-0.82146 1.69208,-1.94451 2.1151,-2.49566 0.42302,-0.55116 0.927576,-1.14837 1.121235,-1.32714 0.193659,-0.17877 0.511925,-0.6339 0.707257,-1.01139 0.195332,-0.37749 0.642571,-1.04055 0.993865,-1.47346 0.351293,-0.43292 0.898295,-1.23754 1.21556,-1.78805 0.317265,-0.5505 0.803149,-1.27187 1.079743,-1.60304 0.276594,-0.33116 0.699404,-0.98955 0.939577,-1.46309 0.240174,-0.47353 0.638595,-1.16608 0.88538,-1.539 0.246785,-0.372915 0.614867,-1.15359 0.817959,-1.734832 0.203092,-0.581241 0.556256,-1.52374 0.784808,-2.094441 0.228553,-0.570701 0.455291,-1.479232 0.503862,-2.018958 0.04857,-0.539726 0.170575,-1.587008 0.271119,-2.327293 0.100544,-0.740284 0.23324,-2.600611 0.294881,-4.134058 0.172954,-4.302638 0.430583,-5.983805 1.370171,-8.941102 0.978375,-3.079379 0.994642,-3.119864 2.394088,-5.958392 1.077857,-2.186242 1.317848,-2.58664 2.530984,-4.222659 0.396126,-0.53421 0.720602,-1.04196 0.721057,-1.128332 8.89e-4,-0.168883 0.743172,-1.180854 1.567361,-2.136821 0.279942,-0.324701 0.956681,-1.109526 1.503866,-1.744056 2.734753,-3.171293 8.327751,-7.793361 11.06231,-9.141921 0.63453,-0.312921 1.586324,-0.828147 2.115099,-1.144945 0.528775,-0.316799 1.48057,-0.833162 2.1151,-1.147474 0.63453,-0.314312 1.504054,-0.768815 1.932277,-1.010007 1.138719,-0.641372 3.829637,-1.800494 5.278289,-2.273642 0.264387,-0.08635 1.129655,-0.433302 1.922818,-0.770999 1.401923,-0.596883 2.049559,-0.790091 3.845635,-1.147259 0.475897,-0.09464 1.644004,-0.387577 2.595804,-0.650977 0.95179,-0.263401 2.00048,-0.483394 2.3304,-0.488875 0.32993,-0.0055 1.13212,-0.179997 1.78264,-0.387814 1.07964,-0.344902 3.63505,-0.719346 6.07789,-0.890592 3.56198,-0.249699 19.400463,-0.08565 19.898593,0.206106 0.0543,0.0318 0.8301,0.116514 1.72401,0.188251 0.89391,0.07174 1.70728,0.181099 1.80748,0.243026 0.1002,0.06193 1.14261,0.22753 2.31648,0.368007 1.17386,0.140478 2.86978,0.435715 3.76869,0.656083 3.02735,0.742149 3.9363,0.958293 5.2817,1.255972 0.73695,0.163056 1.42917,0.363961 1.53825,0.446455 0.10909,0.08249 0.97708,0.349136 1.92888,0.592537 0.95179,0.243402 1.90942,0.551825 2.12806,0.685385 0.21864,0.13356 0.95412,0.416229 1.6344,0.628154 0.68027,0.211924 2.08381,0.782704 3.11897,1.2684 1.03516,0.485695 1.99692,0.883083 2.13724,0.883083 0.14032,0 0.47513,0.173053 0.74402,0.384563 0.26889,0.21151 0.52966,0.384564 0.57948,0.384564 0.12726,0 2.03744,1.162616 2.76429,1.682465 0.3327,0.237949 0.69942,0.432634 0.81493,0.432634 0.47645,0 6.47129,5.563191 8.70243,8.075834 1.92701,2.170135 2.72888,3.262647 5.7157,7.787412 0.67604,1.024141 1.25065,2.22761 2.50583,5.248174 0.32054,0.771397 0.71483,1.591022 0.87618,1.82139 0.16136,0.230369 0.29338,0.534136 0.29338,0.67504 0,0.140903 0.17778,0.662443 0.39506,1.158977 1.0749,2.456338 1.46185,3.505698 1.71553,4.652283 0.12869,0.581653 0.35667,1.543625 0.50661,2.137715 0.52467,2.078701 1.44519,6.821043 1.71247,8.822346 0.14831,1.110427 0.41907,3.143807 0.6017,4.518622 0.23715,1.785321 0.33104,3.818441 0.32854,7.114421 -0.003,4.28813 -0.0865,5.66325 -0.6692,11.05621 -0.11998,1.11042 -0.24378,2.3218 -0.2751,2.69194 -0.0692,0.81799 -0.6071,3.58596 -0.9528,4.90319 -0.70634,2.69134 -0.96612,3.59901 -1.46886,5.1322 -0.30139,0.91912 -0.54798,1.79748 -0.54798,1.9519 0,0.31726 -1.50359,4.26973 -2.22066,5.83738 -0.2592,0.56669 -0.47128,1.09267 -0.47128,1.16885 0,0.155 -1.42103,3.1414 -1.85004,3.88801 -0.15192,0.26439 -0.58707,1.08639 -0.967,1.82668 -0.37993,0.74028 -1.17779,2.14968 -1.77303,3.132 -0.59523,0.98231 -1.17145,1.93411 -1.28048,2.1151 -0.17827,0.29593 -1.23361,1.98279 -1.72458,2.75658 -0.77452,1.22068 -1.42941,2.15319 -2.21124,3.14866 -0.49836,0.63453 -1.13114,1.4998 -1.40618,1.92282 -0.27504,0.42302 -0.84072,1.25118 -1.25707,1.84037 -0.92141,1.30389 -2.91292,5.0947 -2.91292,5.54468 0,0.179 -0.0759,0.40765 -0.1686,0.50812 -0.47305,0.51252 -1.41447,3.69692 -1.95831,6.6241 -0.10806,0.58165 -0.36915,1.83775 -0.58019,2.79132 -0.82724,3.73782 -0.49626,11.77022 0.76444,18.55196 0.31716,1.70608 0.86251,3.98592 1.7478,7.30671 0.0987,0.37014 0.31839,1.23541 0.48826,1.92281 0.16986,0.68741 0.48042,1.89879 0.69012,2.69195 0.2097,0.79316 0.46919,1.83148 0.57664,2.30738 0.10745,0.4759 0.24852,0.99506 0.31348,1.15369 0.065,0.15863 0.14493,0.41821 0.17771,0.57685 0.38615,1.86911 0.86391,3.91673 1.07674,4.61476 0.39581,1.29817 -0.081,2.56767 -1.01299,2.69737 -0.80963,0.11267 -1.53826,-0.0233 -1.53826,-0.28708 0,-0.15492 -0.16119,-0.36793 -0.35819,-0.47336 -0.52854,-0.28287 -0.65505,-0.69118 -2.32788,-7.5131 -0.8428,-3.43704 -1.62637,-6.59527 -1.74125,-7.01829 -0.11489,-0.42302 -0.23229,-0.98544 -0.26089,-1.24983 -0.0286,-0.26439 -0.19179,-0.9566 -0.36262,-1.53825 -0.17084,-0.58166 -0.37246,-1.31713 -0.44805,-1.6344 -0.0756,-0.31726 -0.16974,-0.70663 -0.20923,-0.86527 -0.21253,-0.85369 -0.85581,-5.01435 -0.84727,-5.48003 0.004,-0.21151 -0.17322,-1.46615 -0.39355,-2.78808 -0.31631,-1.89782 -0.40095,-3.25312 -0.40231,-6.44144 -9.5e-4,-2.22086 0.0515,-4.42729 0.11661,-4.90319 0.172,-1.25773 0.67918,-4.52745 0.90969,-5.86459 0.21464,-1.24513 0.55609,-2.41365 1.2361,-4.2302 0.23753,-0.63453 0.54287,-1.45653 0.67852,-1.82668 0.25898,-0.7066 2.31711,-4.82922 2.72873,-5.46586 1.95423,-3.02257 3.14896,-4.79729 3.74377,-5.56118 0.39925,-0.51274 1.15854,-1.60481 1.68732,-2.42682 0.52877,-0.822 1.5299,-2.34934 2.22472,-3.39408 0.69482,-1.04474 1.58595,-2.54848 1.98027,-3.34164 0.39433,-0.79316 0.89734,-1.74496 1.11781,-2.1151 0.76974,-1.29231 1.4483,-2.6007 1.59586,-3.07712 0.0818,-0.26405 0.48704,-1.20956 0.90057,-2.10112 0.85307,-1.83922 3.04234,-7.99459 3.04921,-8.57317 0.002,-0.20971 0.18388,-1.03025 0.4031,-1.82341 1.04319,-3.77444 1.8338,-7.53883 2.07978,-9.90252 0.12106,-1.1633 0.29099,-2.80731 0.37763,-3.65335 0.16262,-1.5881 0.11368,-11.49014 -0.066,-13.36358 -0.30654,-3.195156 -0.56058,-4.88417 -1.25806,-8.36426 -1.4053,-7.011837 -3.03208,-12.289956 -4.65218,-15.094119 -0.0916,-0.158632 -0.48298,-0.937374 -0.86964,-1.730536 -1.28623,-2.638507 -4.12159,-7.076651 -5.17048,-8.093275 -0.36025,-0.349163 -0.65499,-0.728433 -0.65499,-0.842821 0,-0.336164 -5.29604,-5.506697 -7.59513,-7.415143 -1.16331,-0.965643 -2.38216,-1.867872 -2.70857,-2.004951 -0.3264,-0.13708 -1.11245,-0.603491 -1.74676,-1.03647 -0.63431,-0.432978 -1.968,-1.100958 -2.96375,-1.4844 -0.99575,-0.383441 -1.89698,-0.761738 -2.00273,-0.84066 -0.53793,-0.401439 -5.86851,-2.345554 -7.59513,-2.770021 -0.68741,-0.168989 -2.02857,-0.514894 -2.98037,-0.768677 -1.4592,-0.389076 -5.64394,-1.195493 -7.08353,-1.365026 -0.2285,-0.02691 -0.78343,-0.112614 -1.23317,-0.190453 -1.47819,-0.25584 -1.83812,-0.293556 -5.58108,-0.584829 -3.97254,-0.309138 -9.3776,-0.284427 -13.983073,0.06393 -1.48057,0.11199 -3.47069,0.250225 -4.42249,0.307189 -3.84954,0.23039 -7.62352,0.905282 -10.09479,1.805225 -0.58165,0.211817 -1.360392,0.441054 -1.730534,0.509416 -1.980032,0.365698 -9.485552,3.378154 -10.813658,4.34023 -0.429521,0.311143 -0.846745,0.565715 -0.927164,0.565715 -0.08042,0 -0.754507,0.344696 -1.497974,0.765992 -0.743467,0.421296 -1.681377,0.949644 -2.084245,1.174108 -0.402867,0.224464 -1.093156,0.701772 -1.533974,1.060685 -0.440818,0.358913 -0.852979,0.652569 -0.915913,0.652569 -0.115447,0 -0.611218,0.360352 -3.205359,2.329822 -3.023651,2.295556 -7.59758,7.732024 -9.12139,10.841479 -0.310956,0.63453 -0.614722,1.196954 -0.675036,1.249831 -0.368313,0.322901 -2.512644,5.115511 -2.75301,6.153017 -0.697497,3.010643 -1.072198,5.453564 -1.179707,7.691271 -0.261295,5.438614 -0.275363,5.575764 -0.887557,8.652679 -0.115727,0.581652 -0.368449,1.403657 -0.561603,1.826677 -0.625578,1.370055 -1.146073,2.640966 -1.146073,2.798416 0,0.0845 -0.412184,0.83066 -0.915964,1.65802 -0.50378,0.82736 -1.130951,1.9153 -1.393712,2.41764 -0.262762,0.50233 -0.528221,0.91334 -0.589908,0.91334 -0.06169,0 -0.405038,0.45426 -0.763002,1.00948 -0.357964,0.55521 -0.936084,1.39885 -1.284712,1.87474 -0.348628,0.4759 -0.69764,0.95421 -0.775583,1.06292 -0.07794,0.10871 -0.52226,0.62787 -0.987373,1.15369 -0.465113,0.52582 -1.138117,1.30215 -1.495566,1.72517 -2.145255,2.53878 -3.357666,3.94321 -4.299609,4.98054 -0.585565,0.64486 -1.442975,1.69164 -1.905357,2.32617 -0.462382,0.63453 -0.978341,1.2922 -1.146577,1.46149 -1.215717,1.22335 -1.940278,2.44442 -1.940278,3.26986 0,0.19692 0.237949,0.62279 0.528775,0.94636 0.410293,0.4565 0.815806,0.64801 1.80977,0.85472 1.5896,0.33059 1.977573,0.23631 2.217354,-0.53884 0.103733,-0.33534 0.822237,-1.51824 1.596676,-2.62866 1.589653,-2.27932 5.989225,-6.81189 8.653121,-8.9147 0.898918,-0.70958 1.755822,-1.38935 1.904232,-1.5106 1.521757,-1.24323 3.424995,-2.24181 5.402475,-2.83453 0.793163,-0.23774 1.68578,-0.5582 1.983594,-0.71215 0.637466,-0.32951 3.745234,-0.94628 5.631829,-1.11769 2.971038,-0.26995 13.606436,-0.26758 16.131376,0.004 1.374814,0.14765 2.889033,0.30774 3.364931,0.35575 0.475897,0.048 0.865268,0.10149 0.865268,0.11885 0,0.0174 0.475897,0.0673 1.057549,0.11099 0.581653,0.0437 1.72584,0.25245 2.542639,0.46394 0.816799,0.21149 1.618115,0.38453 1.780702,0.38453 0.162587,0 0.662407,0.16549 1.110717,0.36776 0.4483,0.20227 1.16121,0.46788 1.58423,0.59024 0.42302,0.12237 0.94218,0.29745 1.15369,0.38906 0.21151,0.0916 1.37962,0.57564 2.5958,1.07559 1.21618,0.49995 2.51409,1.14456 2.88423,1.43247 0.37014,0.28791 1.04299,0.71631 1.49521,0.95201 0.45222,0.2357 0.90953,0.59169 1.01624,0.79108 0.10671,0.19939 0.31227,0.36253 0.4568,0.36253 0.14453,0 0.85533,0.65865 1.57956,1.46367 0.72423,0.80501 1.51147,1.67421 1.74942,1.93155 0.23794,0.25734 0.43263,0.53344 0.43263,0.61355 0,0.0801 0.24698,0.48719 0.54884,0.9046 0.6461,0.89343 2.11827,3.6599 2.60379,4.893 0.187393,0.47589 0.450573,0.99505 0.584853,1.15369 0.13428,0.15863 0.46389,0.85084 0.73246,1.53825 0.26857,0.68741 0.74869,1.85552 1.06693,2.5958 0.76963,1.79028 1.87113,5.12755 2.47513,7.49899 0.26936,1.05755 0.57359,2.08094 0.67608,2.2742 0.64116,1.209 1.86572,6.82091 2.55418,11.70523 0.14463,1.02612 0.311,2.02118 0.3697,2.21124 0.17239,0.55815 0.97753,9.01105 1.45232,15.2474 0.10065,1.32194 0.27759,4.56669 0.39322,7.21057 0.33346,7.62467 0.38411,8.66286 0.58168,11.92147 0.10258,1.69208 0.23078,3.89851 0.28489,4.90318 0.0541,1.00468 0.14491,2.51889 0.20179,3.36493 0.1851,2.75297 0.47223,11.416 0.54171,16.34395 l 0.0461,3.26879 -0.52376,0.52878 c -0.64025,0.6464 -1.84355,0.73699 -2.35037,0.17696 z m 48.33557,-72.04227 c 0.26092,-0.35572 0.25684,-0.36477 -0.0544,-0.12067 -0.18508,0.14514 -0.3365,0.35425 -0.3365,0.46468 0,0.11043 0.0245,0.16473 0.0544,0.12067 0.0299,-0.0441 0.18135,-0.25317 0.3365,-0.46468 z m -65.714503,71.76917 c -0.24572,-0.26617 -0.47968,-0.91352 -0.60808,-1.68247 -0.11478,-0.6874 -0.2993,-1.68246 -0.41005,-2.21124 -0.2046,-0.97688 -0.19219,-1.19792 0.21056,-3.74949 0.30834,-1.9535 -0.0211,-4.04366 -0.91548,-5.80752 -0.86935,-1.71457 -1.59677,-4.19026 -1.68346,-5.72939 -0.14789,-2.62581 0.36014,-5.40481 1.30059,-7.11442 0.46349,-0.84256 2.79808,-4.80312 3.72784,-6.32416 0.23336,-0.38177 0.42804,-0.80806 0.43263,-0.94731 0.005,-0.13925 0.21397,-0.52862 0.4653,-0.86527 0.95234,-1.27565 3.64445,-5.96591 4.25435,-7.41203 1.597603,-3.78806 1.933053,-4.06142 3.879913,-3.16176 0.77364,0.3575 0.9277,0.79242 1.51943,4.28939 0.33871,2.00168 0.49608,3.79144 0.55795,6.3453 0.1243,5.13122 0.29955,20.01573 0.32229,27.37286 l 0.0195,6.318 -0.55395,0.4584 c -0.81502,0.67445 -1.98858,0.57643 -2.35764,-0.19691 -0.28626,-0.59983 -0.47196,-3.88691 -0.37016,-6.5522 0.067,-1.75381 0.0268,-5.48929 -0.13644,-12.69059 -0.0623,-2.74963 -0.10531,-7.89798 -0.0955,-11.44077 0.0178,-6.41058 -0.0802,-8.4604 -0.40446,-8.4604 -0.0936,0 -0.17012,0.15469 -0.17012,0.34374 0,0.18906 -0.47859,1.16249 -1.063523,2.16317 -0.58494,1.00069 -1.39097,2.46839 -1.79118,3.26155 -0.40022,0.79316 -0.93832,1.78822 -1.19579,2.21124 -0.25748,0.42302 -0.63368,1.09453 -0.83602,1.49224 -0.20233,0.39771 -0.64018,1.04666 -0.973,1.44211 -0.33282,0.39545 -0.7831,1.06511 -1.00062,1.48813 -0.21752,0.42302 -0.65215,1.24502 -0.96584,1.82668 -0.3137,0.58165 -0.73371,1.57671 -0.93336,2.21124 -0.63574,2.02054 -0.38011,5.41932 0.53571,7.12237 0.16826,0.3129 0.40886,0.87174 0.53468,1.24188 0.12582,0.37015 0.29473,0.84604 0.37536,1.05755 0.90327,2.36935 1.14197,4.53495 0.67639,6.13648 -0.37936,1.30497 -0.42145,2.85605 -0.0996,3.66989 0.46401,1.17324 0.21326,3.37832 -0.46081,4.0524 -0.41695,0.41695 -1.33096,0.3358 -1.78746,-0.15869 z"
       id="path1" /></g></svg>
